<?xml version="1.0" encoding="UTF-8" standalone="no"?>
<!-- Created with Inkscape (http://www.inkscape.org/) -->

<svg
   width="1284"
   height="2778"
   viewBox="0 0 339.72499 735.01249"
   version="1.1"
   id="svg5"
   inkscape:version="1.2.2 (b0a84865, 2022-12-01)"
   sodipodi:docname="20hints-log-splash.svg"
   xml:space="preserve"
   inkscape:export-filename="20hints-logo.png"
   inkscape:export-xdpi="96"
   inkscape:export-ydpi="96"
   xmlns:inkscape="http://www.inkscape.org/namespaces/inkscape"
   xmlns:sodipodi="http://sodipodi.sourceforge.net/DTD/sodipodi-0.dtd"
   xmlns:xlink="http://www.w3.org/1999/xlink"
   xmlns="http://www.w3.org/2000/svg"
   xmlns:svg="http://www.w3.org/2000/svg"><sodipodi:namedview
     id="namedview7"
     pagecolor="#ffffff"
     bordercolor="#000000"
     borderopacity="0.25"
     inkscape:showpageshadow="2"
     inkscape:pageopacity="0.0"
     inkscape:pagecheckerboard="0"
     inkscape:deskcolor="#d1d1d1"
     inkscape:document-units="mm"
     showgrid="false"
     inkscape:zoom="0.32346812"
     inkscape:cx="494.63916"
     inkscape:cy="1306.1565"
     inkscape:window-width="1857"
     inkscape:window-height="1205"
     inkscape:window-x="0"
     inkscape:window-y="25"
     inkscape:window-maximized="0"
     inkscape:current-layer="layer2" /><defs
     id="defs2"><linearGradient
       inkscape:collect="always"
       id="linearGradient2735"><stop
         style="stop-color:#34495e;stop-opacity:1;"
         offset="0"
         id="stop2733" /><stop
         style="stop-color:#2c3e50;stop-opacity:1;"
         offset="1"
         id="stop2731" /></linearGradient><rect
       x="275.43813"
       y="1543.3279"
       width="1272.2619"
       height="415.34322"
       id="rect402" /><linearGradient
       inkscape:collect="always"
       id="linearGradient7165"><stop
         style="stop-color:#2e2e2e;stop-opacity:1;"
         offset="0"
         id="stop7161" /><stop
         style="stop-color:#000000;stop-opacity:1;"
         offset="1"
         id="stop7163" /></linearGradient><rect
       x="48.092373"
       y="100.55678"
       width="274.34512"
       height="201.11356"
       id="rect256" /><linearGradient
       inkscape:collect="always"
       xlink:href="#linearGradient7165"
       id="linearGradient7167"
       x1="11.14231"
       y1="53.411308"
       x2="88.857689"
       y2="53.411308"
       gradientUnits="userSpaceOnUse" /><radialGradient
       inkscape:collect="always"
       xlink:href="#linearGradient2735"
       id="radialGradient2737"
       cx="169.8625"
       cy="367.50626"
       fx="169.8625"
       fy="367.50626"
       r="169.8625"
       gradientTransform="matrix(1,0,0,2.1635514,0,-427.61242)"
       gradientUnits="userSpaceOnUse" /></defs><g
     inkscape:groupmode="layer"
     id="layer2"
     inkscape:label="background"><rect
       style="fill:url(#radialGradient2737);fill-opacity:1;stroke-width:4.99702;stroke-linecap:round;stroke-miterlimit:0;stop-color:#000000;stroke:none"
       id="rect552"
       width="339.72501"
       height="735.01251"
       x="0"
       y="0"
       ry="2.6994937e-06" /><text
       xml:space="preserve"
       transform="matrix(0.26458333,0,0,0.26458333,-70.963621,8.2617889)"
       id="text400"
       style="font-size:192px;line-height:normal;font-family:'Gill Sans';-inkscape-font-specification:'Gill Sans';text-align:center;text-decoration-color:#000000;white-space:pre;shape-inside:url(#rect402);display:inline;fill:#ffffff;stroke:none;stroke-width:4.12724;stroke-linejoin:bevel;stroke-miterlimit:0;stroke-dasharray:none;stroke-opacity:1;stop-color:#000000"><tspan
         x="508.30273"
         y="1712.0781"
         id="tspan4907"><tspan
           style="font-weight:bold;font-family:Courier;-inkscape-font-specification:'Courier Bold';fill:#ececec"
           id="tspan4905">20Hints</tspan></tspan></text></g><g
     inkscape:groupmode="layer"
     id="layer3"
     inkscape:label="Layer 2"
     style="fill:#f4d7d7" /><g
     inkscape:groupmode="layer"
     id="layer5"
     inkscape:label="Layer 3" /><g
     inkscape:label="Layer 1"
     inkscape:groupmode="layer"
     id="layer1" /><g
     inkscape:groupmode="layer"
     id="layer4"
     inkscape:label="top"><g
       id="g314"
       transform="matrix(1.8217043,0,0,1.8217043,78.481021,214.02782)"><path
         style="fill:#ffe6d5;fill-opacity:1;stroke-width:1;stroke-linecap:round;stroke-miterlimit:0;stop-color:#000000"
         d="M 16.90402,100 16.35916,76.683559 29.477749,62.539653 c 0,0 6.455768,-10.282402 6.660257,-11.611584 1.94265,0.102245 8.236214,-2.668549 8.236214,-2.668549 L 30.877914,27.299348 36.224101,18.039481 h 28.183543 l 3.529629,9.738506 -11.611832,20.112281 11.694089,6.751584 4.705358,17.560634 7.48734,26.790539 z"
         id="path6297"
         sodipodi:nodetypes="cccccccccccccc" /><path
         style="fill:#c8b7b7;fill-opacity:1;stroke-width:1;stroke-linecap:round;stroke-miterlimit:0;stop-color:#000000"
         d="M 56.858838,18.039481 59.067503,34.936963 50,61.115788 52.053602,78.09786 56.024177,85.316345 50.796949,89.303124 38.056158,83.703309 14.566422,100.19798 84.656304,100.29532 72.724888,72.202486 61.876107,47.678629 67.22156,27.726865 66.172459,22.908734 64.407644,18.039481"
         id="path8708"
         sodipodi:nodetypes="cccccccccccccc" /><path
         style="fill:url(#linearGradient7167);fill-opacity:1;stroke:#fdfdfd;stroke-width:0.60383;stroke-dasharray:none;stroke-opacity:0.19113573"
         d="m 13.788554,66.607273 c 0,0 13.911689,-4.997311 13.6443,-5.192311 -0.124409,-0.09072 -2.630467,-0.375067 -5.010167,-1.820479 l -4.111645,-2.497382 c 0,0 12.420482,-6.942186 17.520231,-8.622904 1.368303,-0.45095 2.030575,-0.997694 2.030575,-0.997694 -0.406203,-1.806036 -1.098674,-3.566367 -1.614709,-5.320589 -0.795633,-2.718984 -0.936948,-2.943768 -1.850671,-2.943768 -1.322102,0 -2.203705,-1.680243 -2.203705,-4.200032 0,-0.651555 -0.12203,-0.758686 -1.280218,-1.123964 -10.059822,-3.172745 -9.791792,-7.977634 0.593647,-10.642021 0.916863,-0.235222 2.044815,-0.576714 2.044815,-0.576714 0,0 0.552637,-2.56409 1.604169,-7.233856 1.617551,-7.1834093 1.610907,-7.1624734 2.567906,-8.0926144 1.934686,-1.880403 4.479998,-1.107821 11.239844,3.4116454 0.703088,0.470057 1.106319,0.605413 1.347601,0.452345 0.189373,-0.120139 1.253946,-0.832844 2.365707,-1.5838034 8.158974,-5.5110918 9.513682,-4.824763 12.10086,6.1305924 0.876685,3.712282 1.395365,7.15501 1.395365,7.15501 0,0 1.320594,0.123484 2.135892,0.343099 10.747712,2.895115 10.752343,6.730379 0.01376,10.843739 -0.574169,0.21992 -0.702062,0.490041 -0.976331,2.062103 -0.438632,2.514143 -0.77768,3.054471 -1.916618,3.054471 -0.702552,0 -0.96071,0.119274 -1.146412,0.529658 -0.392335,0.866991 -2.406643,7.936825 -2.406643,7.936825 0,0 1.615282,0.657108 3.46822,1.379427 5.910844,2.304178 16.768305,8.591788 16.768305,8.591788 0,0 -2.164596,1.008241 -7.269006,2.772216 -2.953908,1.020807 -2.957485,1.056597 -0.19246,1.924909 3.259111,1.030687 11.878092,3.706297 11.878092,3.706297 l -1.872954,34.242054 -57.746215,-0.0802 13.471996,-12.905869 -1.84323,-1.978243 -16.458079,14.877412 -7.514354,-0.0104 z M 58.1343,85.582924 53.570054,77.477282 47.576642,79.929966 48.34182,76.325198 45.003048,75.443138 42.18107,81.67084 c -0.23529,0.519252 9.921819,8.691003 9.921819,8.691003 z M 46.280575,70.965505 47.963848,63.405239 44.962224,59.937185 c 0,0 2.054109,-2.87206 2.054109,-2.994712 0,0 -6.986286,-4.253873 -7.242822,-4.018529 -0.311718,0.285969 -5.569901,11.033249 -5.569901,11.033249 l 7.107139,8.736501 z m 6.359054,-13.921605 1.7178,3.28262 -3.406075,3.372257 1.840097,5.051896 12.145768,-4.065641 -5.556424,-12.265194 M 55.506192,30.500187 c 3.696677,-0.50554 8.795187,-2.13913 10.880956,-3.486326 0.639239,-0.412878 0.602293,-0.404346 0.180444,-2.315244 l -0.395133,-1.789883 c -6.717353,4.977786 -22.880148,5.232648 -31.148377,0.453143 -0.688647,-0.398075 -1.32684,-0.645336 -1.32684,-0.645336 0,0 -0.695922,2.791326 -0.695922,3.40245 0,1.41372 5.373689,3.487681 11.58934,4.472879 2.006666,0.318065 8.306219,0.265151 10.915532,-0.09168 z"
         id="path439"
         sodipodi:nodetypes="csscsccsssscsssscsccsssscscsccccccccccccccscccccsscccccccccssscscssss" /><path
         style="fill:#c7e83c;fill-opacity:1;stroke-width:1;stroke-linecap:round;stroke-miterlimit:0;stop-color:#000000"
         d="m 45.72999,77.051288 10.50368,-13.036445 6.019124,6.238219 -7.471179,9.37583 -1.211561,-2.15161 -4.945271,2.023753 z"
         id="path6410"
         sodipodi:nodetypes="ccccccc" /></g></g></svg>
